<svg xmlns="http://www.w3.org/2000/svg" viewBox="0 0 36 36"><path d="M35 2C16.2 2 2 16.1 2 35h16a17 17 0 0 1 17-17z" fill="#8767ac"/><path d="M1 35h2.8A31.2 31.2 0 0 1 35 3.8V1A34 34 0 0 0 1 35z" fill="#eb2027"/><path d="M3.8 35h2.9A28.3 28.3 0 0 1 35 6.7V3.8A31.2 31.2 0 0 0 3.8 35z" fill="#f19020"/><path d="M6.7 35h2.8A25.5 25.5 0 0 1 35 9.5V6.7A28.3 28.3 0 0 0 6.7 35z" fill="#ffcb4c"/><path d="M9.5 35h2.8A22.7 22.7 0 0 1 35 12.3V9.5A25.5 25.5 0 0 0 9.5 35z" fill="#5c903f"/><path d="M12.3 35h2.9A19.8 19.8 0 0 1 35 15.2v-2.9A22.7 22.7 0 0 0 12.3 35z" fill="#226798"/></svg>